<svg width="53" height="53" viewBox="0 0 53 53" fill="none" xmlns="http://www.w3.org/2000/svg">
<mask id="mask0_21_243" style="mask-type:alpha" maskUnits="userSpaceOnUse" x="0" y="0" width="53" height="53">
<rect width="53" height="53" fill="#D9D9D9"/>
</mask>
<g mask="url(#mask0_21_243)">
<path d="M28.708 33.1257V19.8757H34.2288V15.459H28.708V2.20898H44.1663V15.459H38.6455V19.8757H44.1663V33.1257H28.708ZM33.1247 28.709H39.7497V24.2923H33.1247V28.709ZM33.1247 11.0423H39.7497V6.62565H33.1247V11.0423ZM8.83301 50.7923V37.5423H14.3538V33.1257H8.83301V19.8757H14.3538V15.459H8.83301V2.20898H24.2913V15.459H18.7705V19.8757H24.2913V33.1257H18.7705V37.5423H24.2913V50.7923H8.83301ZM13.2497 46.3756H19.8747V41.959H13.2497V46.3756ZM13.2497 28.709H19.8747V24.2923H13.2497V28.709ZM13.2497 11.0423H19.8747V6.62565H13.2497V11.0423Z" fill="#888981"/>
</g>
</svg>
