<svg width="55" height="55" viewBox="0 0 55 55" fill="none" xmlns="http://www.w3.org/2000/svg">
<mask id="mask0_21_237" style="mask-type:alpha" maskUnits="userSpaceOnUse" x="0" y="0" width="55" height="55">
<rect width="55" height="55" fill="#D9D9D9"/>
</mask>
<g mask="url(#mask0_21_237)">
<path d="M13.7498 48.1253C13.1005 48.1253 12.5563 47.9057 12.117 47.4665C11.6778 47.0272 11.4582 46.483 11.4582 45.8337V43.542H6.87484C5.61442 43.542 4.53543 43.0932 3.63786 42.1956C2.74029 41.2981 2.2915 40.2191 2.2915 38.9587V13.7503C2.2915 12.4899 2.74029 11.4109 3.63786 10.5133C4.53543 9.61578 5.61442 9.16699 6.87484 9.16699H48.1248C49.3853 9.16699 50.4642 9.61578 51.3618 10.5133C52.2594 11.4109 52.7082 12.4899 52.7082 13.7503V38.9587C52.7082 40.2191 52.2594 41.2981 51.3618 42.1956C50.4642 43.0932 49.3853 43.542 48.1248 43.542H43.5415V45.8337C43.5415 46.483 43.3219 47.0272 42.8826 47.4665C42.4434 47.9057 41.8991 48.1253 41.2498 48.1253H13.7498ZM6.87484 38.9587H48.1248V13.7503H6.87484V38.9587ZM11.4582 34.3753H43.5415L33.229 20.6253L25.2082 30.9378L19.479 24.0628L11.4582 34.3753Z" fill="#888981"/>
</g>
</svg>
