<svg width="55" height="55" viewBox="0 0 55 55" fill="none" xmlns="http://www.w3.org/2000/svg">
<mask id="mask0_21_175" style="mask-type:alpha" maskUnits="userSpaceOnUse" x="0" y="0" width="55" height="55">
<rect width="55" height="55" fill="#D9D9D9"/>
</mask>
<g mask="url(#mask0_21_175)">
<path d="M43.5418 48.1247L27.5002 32.083L22.1147 37.4684C22.4203 38.0413 22.6304 38.6525 22.745 39.3018C22.8595 39.9511 22.9168 40.6004 22.9168 41.2497C22.9168 43.7705 22.0193 45.9285 20.2241 47.7236C18.429 49.5188 16.271 50.4163 13.7502 50.4163C11.2293 50.4163 9.07134 49.5188 7.2762 47.7236C5.48107 45.9285 4.5835 43.7705 4.5835 41.2497C4.5835 38.7288 5.48107 36.5709 7.2762 34.7757C9.07134 32.9806 11.2293 32.083 13.7502 32.083C14.3995 32.083 15.0488 32.1403 15.6981 32.2549C16.3474 32.3695 16.9585 32.5795 17.5314 32.8851L22.9168 27.4997L17.5314 22.1143C16.9585 22.4198 16.3474 22.6299 15.6981 22.7445C15.0488 22.859 14.3995 22.9163 13.7502 22.9163C11.2293 22.9163 9.07134 22.0188 7.2762 20.2236C5.48107 18.4285 4.5835 16.2705 4.5835 13.7497C4.5835 11.2288 5.48107 9.07086 7.2762 7.27572C9.07134 5.48058 11.2293 4.58301 13.7502 4.58301C16.271 4.58301 18.429 5.48058 20.2241 7.27572C22.0193 9.07086 22.9168 11.2288 22.9168 13.7497C22.9168 14.399 22.8595 15.0483 22.745 15.6976C22.6304 16.3469 22.4203 16.958 22.1147 17.5309L50.4168 45.833V48.1247H43.5418ZM34.3752 25.208L29.7918 20.6247L43.5418 6.87467H50.4168V9.16634L34.3752 25.208ZM13.7502 18.333C15.0106 18.333 16.0896 17.8842 16.9871 16.9867C17.8847 16.0891 18.3335 15.0101 18.3335 13.7497C18.3335 12.4893 17.8847 11.4103 16.9871 10.5127C16.0896 9.61513 15.0106 9.16634 13.7502 9.16634C12.4897 9.16634 11.4108 9.61513 10.5132 10.5127C9.61561 11.4103 9.16683 12.4893 9.16683 13.7497C9.16683 15.0101 9.61561 16.0891 10.5132 16.9867C11.4108 17.8842 12.4897 18.333 13.7502 18.333ZM27.5002 28.6455C27.8057 28.6455 28.0731 28.5309 28.3022 28.3018C28.5314 28.0726 28.646 27.8052 28.646 27.4997C28.646 27.1941 28.5314 26.9268 28.3022 26.6976C28.0731 26.4684 27.8057 26.3538 27.5002 26.3538C27.1946 26.3538 26.9272 26.4684 26.6981 26.6976C26.4689 26.9268 26.3543 27.1941 26.3543 27.4997C26.3543 27.8052 26.4689 28.0726 26.6981 28.3018C26.9272 28.5309 27.1946 28.6455 27.5002 28.6455ZM13.7502 45.833C15.0106 45.833 16.0896 45.3842 16.9871 44.4867C17.8847 43.5891 18.3335 42.5101 18.3335 41.2497C18.3335 39.9893 17.8847 38.9103 16.9871 38.0127C16.0896 37.1151 15.0106 36.6663 13.7502 36.6663C12.4897 36.6663 11.4108 37.1151 10.5132 38.0127C9.61561 38.9103 9.16683 39.9893 9.16683 41.2497C9.16683 42.5101 9.61561 43.5891 10.5132 44.4867C11.4108 45.3842 12.4897 45.833 13.7502 45.833Z" fill="#C1C5BD"/>
</g>
</svg>
